<?xml version="1.0" encoding="UTF-8"?>
<svg xmlns="http://www.w3.org/2000/svg" xmlns:xlink="http://www.w3.org/1999/xlink" width="24pt" height="24pt" viewBox="0 0 24 24" version="1.1">
<g id="surface16581721">
<rect x="0" y="0" width="24" height="24" style="fill:rgb(94.509804%,76.862745%,5.882353%);fill-opacity:1;stroke:none;"/>
<path style=" stroke:none;fill-rule:nonzero;fill:rgb(0%,0%,0%);fill-opacity:1;" d="M 6.882812 6.152344 C 6.585938 6.152344 6.320312 6.335938 6.207031 6.609375 C 6.09375 6.882812 6.160156 7.199219 6.375 7.40625 L 10.96875 12 L 6.375 16.59375 C 6.183594 16.777344 6.105469 17.050781 6.171875 17.304688 C 6.242188 17.558594 6.441406 17.761719 6.695312 17.828125 C 6.953125 17.894531 7.222656 17.816406 7.40625 17.625 L 12 13.03125 L 16.59375 17.625 C 16.777344 17.816406 17.046875 17.894531 17.304688 17.828125 C 17.558594 17.761719 17.757812 17.558594 17.828125 17.304688 C 17.894531 17.050781 17.816406 16.777344 17.625 16.59375 L 13.03125 12 L 17.625 7.40625 C 17.839844 7.199219 17.90625 6.875 17.789062 6.597656 C 17.671875 6.320312 17.394531 6.144531 17.09375 6.152344 C 16.90625 6.160156 16.726562 6.238281 16.59375 6.375 L 12 10.96875 L 7.40625 6.375 C 7.269531 6.234375 7.082031 6.152344 6.882812 6.152344 Z M 6.882812 6.152344 "/>
</g>
</svg>
